<svg width="150" height="150" viewBox="0 0 150 150" xmlns="http://www.w3.org/2000/svg"><title>dakkapel-icon</title><g fill="none" fill-rule="evenodd"><path d="M79.764 60h28.24c1.655 0 2.996 1.336 2.996 3.007V83H91.95L72.9 60h6.864z" stroke="#002B4D" fill="#8EFC84"/><g transform="translate(32 56)"><rect stroke="#002B4D" fill="#D9DFEC" x="7.037" y="83.574" width="18.981" height="9.426" rx="1"/><rect stroke="#002B4D" fill="#D9DFEC" x="7.037" y="64.723" width="18.981" height="9.426" rx="1"/><rect stroke="#002B4D" fill="#D9DFEC" x="7.037" y="45.872" width="18.981" height="9.426" rx="1"/><rect stroke="#002B4D" fill="#D9DFEC" x="45" y="83.574" width="18.981" height="9.426" rx="1"/><rect stroke="#002B4D" fill="#D9DFEC" x="45" y="64.723" width="18.981" height="9.426" rx="1"/><rect stroke="#002B4D" fill="#D9DFEC" x="45" y="45.872" width="18.981" height="9.426" rx="1"/><path d="M12.1 23.775l-8.25 6.117c-4.88 3.622-3.905 6.554 2.174 6.554h77.952c6.085 0 7.052-2.934 2.173-6.554L48.21 1.754c-1.77-1.313-4.65-1.316-6.424 0L18.426 19.082v-3.44c0-1.743-1.416-3.165-3.163-3.165-1.744 0-3.164 1.417-3.164 3.165v8.133z" stroke="#0F3D20" fill="#8494EB"/><rect stroke="#002B4D" fill="#D9DFEC" x="35.509" y="74.149" width="18.981" height="9.426" rx="1"/><rect stroke="#002B4D" fill="#D9DFEC" x="35.509" y="55.297" width="18.981" height="9.426" rx="1"/><rect stroke="#002B4D" fill="#D9DFEC" x="35.509" y="36.446" width="18.981" height="9.426" rx="1"/><rect stroke="#002B4D" fill="#D9DFEC" x="26.019" y="83.574" width="18.981" height="9.426" rx="1"/><rect stroke="#002B4D" fill="#D9DFEC" x="26.019" y="64.723" width="18.981" height="9.426" rx="1"/><rect stroke="#002B4D" fill="#D9DFEC" x="26.019" y="45.872" width="18.981" height="9.426" rx="1"/><rect stroke="#002B4D" fill="#D9DFEC" x="16.528" y="74.149" width="18.981" height="9.426" rx="1"/><rect stroke="#002B4D" fill="#D9DFEC" x="16.528" y="55.297" width="18.981" height="9.426" rx="1"/><rect stroke="#002B4D" fill="#D9DFEC" x="16.528" y="36.446" width="18.981" height="9.426" rx="1"/><rect stroke="#002B4D" fill="#D9DFEC" x="7.037" y="74.149" width="9.491" height="9.426" rx="1"/><rect stroke="#002B4D" fill="#D9DFEC" x="7.037" y="55.297" width="9.491" height="9.426" rx="1"/><rect stroke="#002B4D" fill="#D9DFEC" x="7.037" y="36.446" width="9.491" height="9.426" rx="1"/><rect stroke="#002B4D" fill="#D9DFEC" x="63.981" y="83.574" width="18.981" height="9.426" rx="1"/><rect stroke="#002B4D" fill="#D9DFEC" x="63.981" y="64.723" width="18.981" height="9.426" rx="1"/><rect stroke="#002B4D" fill="#D9DFEC" x="63.981" y="45.872" width="18.981" height="9.426" rx="1"/><rect stroke="#002B4D" fill="#D9DFEC" x="54.491" y="74.149" width="18.981" height="9.426" rx="1"/><rect stroke="#002B4D" fill="#D9DFEC" x="54.491" y="55.297" width="18.981" height="9.426" rx="1"/><rect stroke="#002B4D" fill="#D9DFEC" x="54.491" y="36.446" width="18.981" height="9.426" rx="1"/><rect stroke="#002B4D" fill="#D9DFEC" x="73.472" y="74.149" width="9.491" height="9.426" rx="1"/><rect stroke="#002B4D" fill="#D9DFEC" x="73.472" y="55.297" width="9.491" height="9.426" rx="1"/><rect stroke="#002B4D" fill="#D9DFEC" x="73.472" y="36.446" width="9.491" height="9.426" rx="1"/><path stroke="#0F3D20" fill="#8494EB" d="M34.877 55.297H56.39V93H34.876z"/><ellipse stroke="#002B4D" fill="#D8D8D8" cx="38.04" cy="74.149" rx="1.265" ry="1.257"/><path stroke="#002B4D" fill="#FFF" d="M13.365 55.297h16.45v18.85h-16.45z"/></g><path d="M38 39h7.517M57 39h7.517" stroke="#8494EB" stroke-width="3" stroke-linecap="round" opacity=".2"/><path d="M25.5 50.5h14" stroke="#8494EB" stroke-width="3" stroke-linecap="round" opacity=".4"/><path d="M49.5 58.5h14" stroke="#8494EB" stroke-width="3" stroke-linecap="round" opacity=".1"/><path d="M19 149h113" stroke="#002B4D" stroke-width="2" stroke-linecap="round"/></g></svg>