<svg width="150" height="150" viewBox="0 0 150 150" xmlns="http://www.w3.org/2000/svg" xmlns:xlink="http://www.w3.org/1999/xlink"><title>garage-icon</title><defs><rect id="a" x="55" y="103" width="10" height="3" rx="1.5"/><mask id="b" x="0" y="0" width="10" height="3" fill="#fff"><use xlink:href="#a"/></mask></defs><g transform="translate(17 31)" fill="none" fill-rule="evenodd"><g stroke="#002B4D"><g fill="#D9DFEC" transform="translate(22 52)"><rect x=".037" y="56.574" width="18.981" height="9.426" rx="1"/><rect x=".037" y="37.723" width="18.981" height="9.426" rx="1"/><rect y="19" width="18.981" height="9.426" rx="1"/><rect y=".02" width="18.981" height="9.426" rx="1"/><rect x="38" y="56.574" width="18.981" height="9.426" rx="1"/><rect x="38" y="37.723" width="18.981" height="9.426" rx="1"/><rect x="38" y="19" width="18.981" height="9.426" rx="1"/><rect x="38" y=".02" width="18.981" height="9.426" rx="1"/><rect x="28.509" y="47.149" width="18.981" height="9.426" rx="1"/><rect x="28.509" y="28.297" width="18.981" height="9.426" rx="1"/><rect x="28.509" y="9.446" width="18.981" height="9.426" rx="1"/><rect x="19.019" y="56.574" width="18.981" height="9.426" rx="1"/><rect x="19.019" y="37.723" width="18.981" height="9.426" rx="1"/><rect x="19" y="19" width="18.981" height="9.426" rx="1"/><rect x="19" y=".02" width="18.981" height="9.426" rx="1"/><rect x="9.528" y="47.149" width="18.981" height="9.426" rx="1"/><rect x="9.528" y="28.297" width="18.981" height="9.426" rx="1"/><rect x="9.528" y="9.446" width="18.981" height="9.426" rx="1"/><rect x=".037" y="47.149" width="9.491" height="9.426" rx="1"/><rect x=".037" y="28.297" width="9.491" height="9.426" rx="1"/><rect x=".037" y="9.446" width="9.491" height="9.426" rx="1"/><rect x="56.981" y="56.574" width="18.981" height="9.426" rx="1"/><rect x="56.981" y="37.723" width="18.981" height="9.426" rx="1"/><rect x="57" y="19" width="18.981" height="9.426" rx="1"/><rect x="57" y=".02" width="18.981" height="9.426" rx="1"/><rect x="47.491" y="47.149" width="18.981" height="9.426" rx="1"/><rect x="47.491" y="28.297" width="18.981" height="9.426" rx="1"/><rect x="47.491" y="9.446" width="18.981" height="9.426" rx="1"/><rect x="66.472" y="47.149" width="9.491" height="9.426" rx="1"/><rect x="66.472" y="28.297" width="9.491" height="9.426" rx="1"/><rect x="66.472" y="9.446" width="9.491" height="9.426" rx="1"/></g><path d="M31 72.003c0-.554.45-1.003 1.007-1.003H89v47H31V72.003z" fill="#8494EB"/></g><path d="M72.5 22.5h23.022" stroke="#8494EB" stroke-width="3" stroke-linecap="round" opacity=".2"/><path d="M60.5 31.5h14" stroke="#8494EB" stroke-width="3" stroke-linecap="round" opacity=".4"/><path d="M84.5 39.5h14" stroke="#8494EB" stroke-width="3" stroke-linecap="round" opacity=".1"/><path d="M2 118h113" stroke="#002B4D" stroke-width="2" stroke-linecap="round"/><use stroke="#002B4D" mask="url(#b)" stroke-width="2" fill="#B1D0C5" xlink:href="#a"/><path d="M31.5 77.5h57.035M31.5 83.5h57.035M31.5 89.5h57.035M31.5 95.5h57.035M31.5 101.5h57.035M31.5 107.5h57.035M31.5 113.5h57.035" stroke="#002B4D" stroke-linecap="square" opacity=".2"/><path d="M22.248 17.004C20.782 15.174 18.528 14 16 14c-2.602 0-4.913 1.242-6.374 3.165C9.1 17.057 8.556 17 8 17c-4.418 0-8 3.582-8 8s3.582 8 8 8c.193 0 .384-.007.573-.02C9.755 35.922 12.635 38 16 38c3.41 0 6.32-2.132 7.472-5.135C27.187 32.175 30 28.915 30 25c0-4.335-3.448-7.865-7.752-7.996zM54.293 4.707C53.038 1.93 50.243 0 47 0c-3.165 0-5.9 1.838-7.198 4.504C38.93 4.178 37.986 4 37 4c-4.418 0-8 3.582-8 8s3.582 8 8 8c1.116 0 2.18-.23 3.144-.642C41.49 20.388 43.174 21 45 21c1.547 0 2.992-.44 4.216-1.2.574.13 1.17.2 1.784.2 4.418 0 8-3.582 8-8 0-3.244-1.93-6.038-4.707-7.293z" fill="#F4F4F4"/></g></svg>