<svg width="150" height="150" viewBox="0 0 150 150" xmlns="http://www.w3.org/2000/svg"><title>kappen-icon</title><g fill="none" fill-rule="evenodd"><path d="M26.824 94.47c7.497-16.846 21.848-18.057 32.06-2.695L96.267 148H3l23.824-53.53z" stroke="#6B6464" fill="#B6AFAF" opacity=".18"/><path d="M69.726 106.872c9.54-9.164 25.01-9.162 34.548 0L147 147.915H27l42.726-41.043z" stroke="#6B6464" fill="#B6AFAF" opacity=".18"/><path stroke="#3F0B0B" fill="#7E5353" d="M111 137h7v12h-7zM46 123.958h9.467v25.272H46zM80.5 145.855c0-1.106.83-2.327 1.857-2.73l3.286-1.284c1.025-.4 1.857.174 1.857 1.28v6.11h-7v-3.375z"/><path d="M99.28 117.4c-4.385-.02-6.072-3.066-3.77-6.815l8.197-13.344h-1.568c-4.422 0-6.128-3.055-3.822-6.808l11.588-18.862c2.31-3.76 6.06-3.753 8.367 0l11.588 18.862c2.312 3.76.608 6.81-3.82 6.81h-1.006l8.196 13.343c2.313 3.764.61 6.816-3.815 6.816h-.517l7.864 12.787c2.314 3.763.602 6.813-3.81 6.813H95.227c-4.418 0-6.12-3.054-3.81-6.813l7.864-12.786zM30.06 106.264h-2.77c-4.413 0-6.11-3.06-3.803-6.818l12.56-20.448h-4.953c-4.414 0-6.117-3.054-3.806-6.816l18.614-30.297c2.313-3.764 6.064-3.76 8.375 0L72.89 72.182c2.313 3.764.604 6.816-3.806 6.816H64.89l12.562 20.448c2.312 3.765.612 6.818-3.803 6.818h-3.532l12.107 19.687c2.316 3.767.616 6.82-3.807 6.82H21.76c-4.418 0-6.124-3.05-3.806-6.82l12.107-19.686z" stroke="#1E7A3D" fill="#4ECE79"/><path d="M96 131l1.038 1.59c.412.63 1.116.66 1.58.053l1.13-1.477M25.624 125.656l1.403 2.148c.558.854 1.51.893 2.137.074l1.53-1.998M101 131l1.038 1.59c.412.63 1.116.66 1.58.053l1.13-1.477M32.386 125.656l1.404 2.148c.557.854 1.51.893 2.136.074l1.53-1.998M111 131l1.038 1.59c.412.63 1.116.66 1.58.053l1.13-1.477M45.91 125.656l1.404 2.148c.558.854 1.51.893 2.137.074l1.53-1.998M104 115l1.038 1.59c.412.63 1.116.66 1.58.053l1.13-1.477M36.443 104.016l1.404 2.15c.558.852 1.51.892 2.136.073l1.53-2M103 105l1.038 1.59c.412.63 1.116.66 1.58.053l1.13-1.477M35.09 90.49l1.405 2.15c.557.854 1.51.893 2.136.074l1.53-1.998" stroke="#000" stroke-linecap="round" opacity=".2"/><path d="M2.5 149H148" stroke="#5EB29C" stroke-width="2" stroke-linecap="round"/><path d="M83.5 52.5h23.022" stroke="#8494EB" stroke-width="3" stroke-linecap="round" opacity=".2"/><path d="M73.5 61.5h14" stroke="#8494EB" stroke-width="3" stroke-linecap="round" opacity=".4"/><path d="M87.5 69.5h14" stroke="#8494EB" stroke-width="3" stroke-linecap="round" opacity=".1"/><path d="M13 51s5.703 1.334 5.703 4.252c0 2.918.184-4.096 4.99-4.096M26 42.25s4.267.998 4.267 3.18c0 2.184.138-3.064 3.733-3.064" stroke="#979797" stroke-width="2" stroke-linecap="round" opacity=".2"/></g></svg>