<svg width="150" height="150" viewBox="0 0 150 150" xmlns="http://www.w3.org/2000/svg"><title>nieuwe-woning-icon</title><g fill="none" fill-rule="evenodd"><path d="M42.438 56.704c-1.88-.673-3.41-2.227-3.965-4.302-.608-2.27.104-4.582 1.666-6.122-.28-.474-.5-.993-.648-1.55-.896-3.345 1.09-6.784 4.434-7.68 3.345-.896 6.783 1.09 7.68 4.434.177.663.242 1.33.205 1.98 1.513.938 2.686 2.432 3.183 4.287 1.038 3.874-1.26 7.856-5.134 8.893-.222.06-.443.108-.664.146.042.11.08.225.11.343.52 1.937-.63 3.927-2.566 4.446-1.937.518-3.927-.63-4.446-2.568-.213-.795-.145-1.6.144-2.308z" fill="#DAD3D3" opacity=".263"/><g transform="translate(32 56)" stroke="#002B4D"><rect fill="#D9DFEC" x="7.037" y="83.574" width="18.981" height="9.426" rx="1"/><rect fill="#D9DFEC" x="7.037" y="64.723" width="18.981" height="9.426" rx="1"/><rect fill="#D9DFEC" x="7.037" y="45.872" width="18.981" height="9.426" rx="1"/><rect fill="#D9DFEC" x="45" y="83.574" width="18.981" height="9.426" rx="1"/><rect fill="#D9DFEC" x="45" y="64.723" width="18.981" height="9.426" rx="1"/><rect fill="#D9DFEC" x="45" y="45.872" width="18.981" height="9.426" rx="1"/><path d="M12.1 23.775l-8.25 6.117c-4.88 3.622-3.905 6.554 2.174 6.554h77.952c6.085 0 7.052-2.934 2.173-6.554L48.21 1.754c-1.77-1.313-4.65-1.316-6.424 0L18.426 19.082v-3.44c0-1.743-1.416-3.165-3.163-3.165-1.744 0-3.164 1.417-3.164 3.165v8.133z" fill="#8494EB"/><rect fill="#D9DFEC" x="35.509" y="74.149" width="18.981" height="9.426" rx="1"/><rect fill="#D9DFEC" x="35.509" y="55.297" width="18.981" height="9.426" rx="1"/><rect fill="#D9DFEC" x="35.509" y="36.446" width="18.981" height="9.426" rx="1"/><rect fill="#D9DFEC" x="26.019" y="83.574" width="18.981" height="9.426" rx="1"/><rect fill="#D9DFEC" x="26.019" y="64.723" width="18.981" height="9.426" rx="1"/><rect fill="#D9DFEC" x="26.019" y="45.872" width="18.981" height="9.426" rx="1"/><rect fill="#D9DFEC" x="16.528" y="74.149" width="18.981" height="9.426" rx="1"/><rect fill="#D9DFEC" x="16.528" y="55.297" width="18.981" height="9.426" rx="1"/><rect fill="#D9DFEC" x="16.528" y="36.446" width="18.981" height="9.426" rx="1"/><rect fill="#D9DFEC" x="7.037" y="74.149" width="9.491" height="9.426" rx="1"/><rect fill="#D9DFEC" x="7.037" y="55.297" width="9.491" height="9.426" rx="1"/><rect fill="#D9DFEC" x="7.037" y="36.446" width="9.491" height="9.426" rx="1"/><rect fill="#D9DFEC" x="63.981" y="83.574" width="18.981" height="9.426" rx="1"/><rect fill="#D9DFEC" x="63.981" y="64.723" width="18.981" height="9.426" rx="1"/><rect fill="#D9DFEC" x="63.981" y="45.872" width="18.981" height="9.426" rx="1"/><rect fill="#D9DFEC" x="54.491" y="74.149" width="18.981" height="9.426" rx="1"/><rect fill="#D9DFEC" x="54.491" y="55.297" width="18.981" height="9.426" rx="1"/><rect fill="#D9DFEC" x="54.491" y="36.446" width="18.981" height="9.426" rx="1"/><rect fill="#D9DFEC" x="73.472" y="74.149" width="9.491" height="9.426" rx="1"/><rect fill="#D9DFEC" x="73.472" y="55.297" width="9.491" height="9.426" rx="1"/><rect fill="#D9DFEC" x="73.472" y="36.446" width="9.491" height="9.426" rx="1"/><path fill="#252B4A" d="M53.877 55.297H75.39V93H53.876z"/><ellipse fill="#D8D8D8" cx="57.04" cy="74.149" rx="1.265" ry="1.257"/><path fill="#FFF" d="M13.365 55.297H45V93H13.365z"/></g><path d="M104.5 33.5h23.022" stroke="#8494EB" stroke-width="3" stroke-linecap="round" opacity=".2"/><path d="M92.5 45.5h14" stroke="#8494EB" stroke-width="3" stroke-linecap="round" opacity=".4"/><path d="M116.5 53.5h14" stroke="#8494EB" stroke-width="3" stroke-linecap="round" opacity=".1"/><path d="M19 149h113" stroke="#002B4D" stroke-width="2" stroke-linecap="round"/></g></svg>