<?xml version="1.0" encoding="UTF-8"?>
<svg width="150px" height="150px" viewBox="0 0 150 150" version="1.1" xmlns="http://www.w3.org/2000/svg" xmlns:xlink="http://www.w3.org/1999/xlink">
    <!-- Generator: Sketch 42 (36781) - http://www.bohemiancoding.com/sketch -->
    <title>overig-icon</title>
    <desc>Created with Sketch.</desc>
    <defs>
        <circle id="path-1" cx="50.5" cy="50.5" r="50.5"></circle>
    </defs>
    <g id="Symbols" stroke="none" stroke-width="1" fill="none" fill-rule="evenodd">
        <g id="overig-icon">
            <g transform="translate(25.000000, 49.000000)">
                <circle id="Oval-3" stroke="#002B4D" stroke-width="2" fill="#DCF3FF" cx="50.5" cy="50.5" r="50.5"></circle>
                <g id="Group-9">
                    <mask id="mask-2" fill="white">
                        <use xlink:href="#path-1"></use>
                    </mask>
                    <use id="Oval-3" stroke="#002B4D" fill="#DCF3FF" xlink:href="#path-1"></use>
                    <g id="Group-7" mask="url(#mask-2)" stroke="#002B4D" fill="#D9DFEC">
                        <g transform="translate(-24.000000, -13.000000)">
                            <rect id="Rectangle-2-Copy-30" x="35.7777778" y="0" width="35.7777778" height="17.875" rx="1"></rect>
                            <rect id="Rectangle-2-Copy-45" x="35.7777778" y="71.5" width="35.7777778" height="17.875" rx="1"></rect>
                            <rect id="Rectangle-2-Copy-37" x="35.7777778" y="35.75" width="35.7777778" height="17.875" rx="1"></rect>
                            <rect id="Rectangle-2-Copy-46" x="35.7777778" y="107.25" width="35.7777778" height="17.875" rx="1"></rect>
                            <rect id="Rectangle-2-Copy-31" x="17.8888889" y="17.875" width="35.7777778" height="17.875" rx="1"></rect>
                            <rect id="Rectangle-2-Copy-47" x="17.8888889" y="89.375" width="35.7777778" height="17.875" rx="1"></rect>
                            <rect id="Rectangle-2-Copy-38" x="17.8888889" y="53.625" width="35.7777778" height="17.875" rx="1"></rect>
                            <rect id="Rectangle-2-Copy-32" x="71.5555556" y="0" width="35.7777778" height="17.875" rx="1"></rect>
                            <rect id="Rectangle-2-Copy-49" x="71.5555556" y="71.5" width="35.7777778" height="17.875" rx="1"></rect>
                            <rect id="Rectangle-2-Copy-39" x="71.5555556" y="35.75" width="35.7777778" height="17.875" rx="1"></rect>
                            <rect id="Rectangle-2-Copy-50" x="71.5555556" y="107.25" width="35.7777778" height="17.875" rx="1"></rect>
                            <rect id="Rectangle-2-Copy-36" x="0" y="0" width="35.7777778" height="17.875" rx="1"></rect>
                            <rect id="Rectangle-2-Copy-51" x="0" y="71.5" width="35.7777778" height="17.875" rx="1"></rect>
                            <rect id="Rectangle-2-Copy-40" x="0" y="35.75" width="35.7777778" height="17.875" rx="1"></rect>
                            <rect id="Rectangle-2-Copy-52" x="0" y="107.25" width="35.7777778" height="17.875" rx="1"></rect>
                            <rect id="Rectangle-2-Copy-35" x="107.333333" y="0" width="35.7777778" height="17.875" rx="1"></rect>
                            <rect id="Rectangle-2-Copy-53" x="107.333333" y="71.5" width="35.7777778" height="17.875" rx="1"></rect>
                            <rect id="Rectangle-2-Copy-41" x="107.333333" y="35.75" width="35.7777778" height="17.875" rx="1"></rect>
                            <rect id="Rectangle-2-Copy-54" x="107.333333" y="107.25" width="35.7777778" height="17.875" rx="1"></rect>
                            <rect id="Rectangle-2-Copy-33" x="53.6666667" y="17.875" width="35.7777778" height="17.875" rx="1"></rect>
                            <rect id="Rectangle-2-Copy-55" x="53.6666667" y="89.375" width="35.7777778" height="17.875" rx="1"></rect>
                            <rect id="Rectangle-2-Copy-42" x="53.6666667" y="53.625" width="35.7777778" height="17.875" rx="1"></rect>
                            <rect id="Rectangle-2-Copy-34" x="89.4444444" y="17.875" width="35.7777778" height="17.875" rx="1"></rect>
                            <rect id="Rectangle-2-Copy-57" x="89.4444444" y="89.375" width="35.7777778" height="17.875" rx="1"></rect>
                            <rect id="Rectangle-2-Copy-43" x="89.4444444" y="53.625" width="35.7777778" height="17.875" rx="1"></rect>
                            <rect id="Rectangle-2-Copy-44" x="125.222222" y="53.625" width="35.7777778" height="17.875" rx="1"></rect>
                        </g>
                    </g>
                </g>
            </g>
        </g>
    </g>
</svg>