<svg width="150" height="150" viewBox="0 0 150 150" xmlns="http://www.w3.org/2000/svg" xmlns:xlink="http://www.w3.org/1999/xlink"><title>schutting-icon</title><defs><rect id="a" y="25" width="108" height="7" rx="2"/><mask id="b" x="0" y="0" width="108" height="7" fill="#fff"><use xlink:href="#a"/></mask></defs><g fill="none" fill-rule="evenodd"><g transform="translate(21 99)"><g stroke="#5E9456" fill="#82C178"><path d="M5 13.05c0-1.103.438-2.79.97-3.753l4.733-8.56c.536-.968 1.44-.98 2.004-.05l5.26 8.66c.57.942 1.033 2.59 1.033 3.703v34.952C19 49.105 18.103 50 16.994 50H7.006C5.898 50 5 49.113 5 48.002V13.05zM33 13.05c0-1.103.438-2.79.97-3.753l4.733-8.56c.536-.968 1.44-.98 2.004-.05l5.26 8.66c.57.942 1.033 2.59 1.033 3.703v34.952C47 49.105 46.103 50 44.994 50h-9.988C33.898 50 33 49.113 33 48.002V13.05zM19 13.05c0-1.103.438-2.79.97-3.753l4.733-8.56c.536-.968 1.44-.98 2.004-.05l5.26 8.66c.57.942 1.033 2.59 1.033 3.703v34.952C33 49.105 32.103 50 30.994 50h-9.988C19.898 50 19 49.113 19 48.002V13.05zM47 13.05c0-1.103.438-2.79.97-3.753l4.733-8.56c.536-.968 1.44-.98 2.004-.05l5.26 8.66c.57.942 1.033 2.59 1.033 3.703v34.952C61 49.105 60.103 50 58.994 50h-9.988C47.898 50 47 49.113 47 48.002V13.05zM61 13.05c0-1.103.438-2.79.97-3.753l4.733-8.56c.536-.968 1.44-.98 2.004-.05l5.26 8.66c.57.942 1.033 2.59 1.033 3.703v34.952C75 49.105 74.103 50 72.994 50h-9.988C61.898 50 61 49.113 61 48.002V13.05z"/><path d="M75 13.05c0-1.103.438-2.79.97-3.753l4.733-8.56c.536-.968 1.44-.98 2.004-.05l5.26 8.66c.57.942 1.033 2.59 1.033 3.703v34.952C89 49.105 88.103 50 86.994 50h-9.988C75.898 50 75 49.113 75 48.002V13.05z"/><path d="M89 13.05c0-1.103.438-2.79.97-3.753l4.733-8.56c.536-.968 1.44-.98 2.004-.05l5.26 8.66c.57.942 1.033 2.59 1.033 3.703v34.952c0 1.103-.897 1.998-2.006 1.998h-9.988C89.898 50 89 49.113 89 48.002V13.05z"/></g><path d="M0 50h108" stroke="#002B4D" stroke-width="2" stroke-linecap="round"/><use stroke="#5E9456" mask="url(#b)" stroke-width="2" fill="#82C178" xlink:href="#a"/></g><path d="M33 69s5.703 1.334 5.703 4.252c0 2.918.184-4.096 4.99-4.096M46 60s4.267.998 4.267 3.18c0 2.185.138-3.063 3.733-3.063M54.768 68s3.447.806 3.447 2.57c0 1.765.112-2.476 3.017-2.476" stroke="#979797" stroke-width="2" stroke-linecap="round" opacity=".2"/><path d="M96.5 43.5h23.022" stroke="#8494EB" stroke-width="3" stroke-linecap="round" opacity=".2"/><path d="M84.5 55.5h14" stroke="#8494EB" stroke-width="3" stroke-linecap="round" opacity=".4"/><path d="M108.5 63.5h14" stroke="#8494EB" stroke-width="3" stroke-linecap="round" opacity=".1"/></g></svg>