<svg width="150" height="150" viewBox="0 0 150 150" xmlns="http://www.w3.org/2000/svg"><title>slopen-icon</title><g fill="none" fill-rule="evenodd"><g stroke="#3B0925" fill="#B28697"><path d="M15 134h30v15H15zM75 134h30v15H75zM60 119h30v15H60zM75 104h30v15H75zM45 134h30v15H45zM36.3 121.85l2.912-2.85H60v15H30l1.878-3.31L30 127.132l1.878-4.017zM105 134h30v15h-30zM90 119h30v15H90z"/></g><path d="M2.5 149H148" stroke="#002B4D" stroke-width="2" stroke-linecap="round"/><g transform="rotate(75 -17.12 95.067)" stroke="#0E0707"><path d="M20.947 5.202c0-2.873-2.24-5.202-5-5.202-2.762 0-5 2.33-5 5.202s10 2.872 10 0z"/><ellipse fill="#655959" cx="15.598" cy="20.781" rx="15.598" ry="16.226"/></g><path d="M82.433 102.346S153 92.74 153 80" stroke="#0F0808"/></g></svg>