<svg width="150" height="150" viewBox="0 0 150 150" xmlns="http://www.w3.org/2000/svg"><title>slopen-nieuw-icon</title><g fill="none" fill-rule="evenodd"><g transform="translate(15 104)" stroke="#002B4D" fill="#D9DFEC"><rect y="30" width="30" height="15" rx="1"/><rect x="60" y="30" width="30" height="15" rx="1"/><rect x="45" y="15" width="30" height="15" rx="1"/><rect x="60" width="30" height="15" rx="1"/><rect x="30" y="30" width="30" height="15" rx="1"/><path d="M20.34 18.124c.532-.15 1.284-.59 1.68-.98l1.473-1.44c.397-.39 1.173-.704 1.722-.704h18.782c.554 0 1.003.45 1.003 1.007v12.986c0 .556-.447 1.007-.998 1.007H15.998c-.55 0-.775-.393-.505-.87l.892-1.57c.272-.48.285-1.264.03-1.75l-.95-1.8c-.257-.484-.278-1.278-.04-1.79l1.027-2.193c.235-.504.85-1.033 1.386-1.186l2.503-.716z"/><rect x="90" y="30" width="30" height="15" rx="1"/><rect x="75" y="15" width="30" height="15" rx="1"/></g><path d="M2.5 149H148" stroke="#002B4D" stroke-width="2" stroke-linecap="round"/><g transform="rotate(73 -14.887 92.935)" stroke="#0E0707"><path d="M20.947 5.202c0-2.873-2.24-5.202-5-5.202-2.762 0-5 2.33-5 5.202s10 2.872 10 0z"/><ellipse fill="#15192E" cx="15.598" cy="20.781" rx="15.598" ry="16.226"/></g><path d="M82.433 96.346S148 86.74 148 74" stroke="#0F0808"/></g></svg>