<svg width="150" height="150" viewBox="0 0 150 150" xmlns="http://www.w3.org/2000/svg" xmlns:xlink="http://www.w3.org/1999/xlink"><title>uitbouw-icon</title><defs><path d="M82 79h27.996c2.21 0 4.004 1.79 4.004 3.99V118H82V79z" id="a"/><mask id="b" x="0" y="0" width="32" height="39" fill="#fff"><use xlink:href="#a"/></mask></defs><g transform="translate(16 32)" fill="none" fill-rule="evenodd"><path d="M5 117h113" stroke="#002B4D" stroke-width="2" stroke-linecap="round"/><g transform="translate(0 24)" stroke="#002B4D"><rect fill="#D9DFEC" x="7.037" y="83.574" width="18.981" height="9.426" rx="1"/><rect fill="#D9DFEC" x="7.037" y="64.723" width="18.981" height="9.426" rx="1"/><rect fill="#D9DFEC" x="7.037" y="45.872" width="18.981" height="9.426" rx="1"/><rect fill="#D9DFEC" x="45" y="83.574" width="18.981" height="9.426" rx="1"/><rect fill="#D9DFEC" x="45" y="64.723" width="18.981" height="9.426" rx="1"/><rect fill="#D9DFEC" x="45" y="45.872" width="18.981" height="9.426" rx="1"/><path d="M12.1 23.775l-8.25 6.117c-4.88 3.622-3.905 6.554 2.174 6.554h77.952c6.085 0 7.052-2.934 2.173-6.554L48.21 1.754c-1.77-1.313-4.65-1.316-6.424 0L18.426 19.082v-3.44c0-1.743-1.416-3.165-3.163-3.165-1.744 0-3.164 1.417-3.164 3.165v8.133z" fill="#8494EB"/><rect fill="#D9DFEC" x="35.509" y="74.149" width="18.981" height="9.426" rx="1"/><rect fill="#D9DFEC" x="35.509" y="55.297" width="18.981" height="9.426" rx="1"/><rect fill="#D9DFEC" x="35.509" y="36.446" width="18.981" height="9.426" rx="1"/><rect fill="#D9DFEC" x="26.019" y="83.574" width="18.981" height="9.426" rx="1"/><rect fill="#D9DFEC" x="26.019" y="64.723" width="18.981" height="9.426" rx="1"/><rect fill="#D9DFEC" x="26.019" y="45.872" width="18.981" height="9.426" rx="1"/><rect fill="#D9DFEC" x="16.528" y="74.149" width="18.981" height="9.426" rx="1"/><rect fill="#D9DFEC" x="16.528" y="55.297" width="18.981" height="9.426" rx="1"/><rect fill="#D9DFEC" x="16.528" y="36.446" width="18.981" height="9.426" rx="1"/><rect fill="#D9DFEC" x="7.037" y="74.149" width="9.491" height="9.426" rx="1"/><rect fill="#D9DFEC" x="7.037" y="55.297" width="9.491" height="9.426" rx="1"/><rect fill="#D9DFEC" x="7.037" y="36.446" width="9.491" height="9.426" rx="1"/><rect fill="#D9DFEC" x="64" y="84" width="18.981" height="9.426" rx="1"/><rect fill="#D9DFEC" x="63.981" y="64.723" width="18.981" height="9.426" rx="1"/><rect fill="#D9DFEC" x="63.981" y="45.872" width="18.981" height="9.426" rx="1"/><rect fill="#D9DFEC" x="54.491" y="74.149" width="18.981" height="9.426" rx="1"/><rect fill="#D9DFEC" x="54.491" y="55.297" width="18.981" height="9.426" rx="1"/><rect fill="#D9DFEC" x="54.491" y="36.446" width="18.981" height="9.426" rx="1"/><rect fill="#D9DFEC" x="73" y="74.149" width="9.491" height="9.426" rx="1"/><rect fill="#D9DFEC" x="73.472" y="55.297" width="9.491" height="9.426" rx="1"/><rect fill="#D9DFEC" x="73.472" y="36.446" width="9.491" height="9.426" rx="1"/><path fill="#252B4A" d="M53.877 55.297H75.39V93H53.876z"/><ellipse fill="#D8D8D8" cx="57.04" cy="74.149" rx="1.265" ry="1.257"/><path fill="#FFF" d="M13.365 55.297H45V93H13.365z"/></g><path d="M90.5 1.5h23.022" stroke="#8494EB" stroke-width="3" stroke-linecap="round" opacity=".2"/><path d="M78.5 13.5h14" stroke="#8494EB" stroke-width="3" stroke-linecap="round" opacity=".4"/><path d="M102.5 21.5h14" stroke="#8494EB" stroke-width="3" stroke-linecap="round" opacity=".1"/><use stroke="#002B4D" mask="url(#b)" stroke-width="2" fill="#D9DFEC" xlink:href="#a"/></g></svg>