<svg width="150" height="150" viewBox="0 0 150 150" xmlns="http://www.w3.org/2000/svg"><title>zwembad-icon</title><g fill="none" fill-rule="evenodd"><path d="M122.972 126.08l.028-.236v.12l-.028.115zm14.283-17.936c-.067.01-.175-.082-.175-.144v.172l.175-.028zm-12.087 8.825c.946-3.924 5.026-7.7 9.007-8.334l2.905-.464v16.944h1V108c0-.552-.442-.93-.982-.843l-3.08.49c-4.383.7-8.782 4.775-9.822 9.088l-2.196 9.11v16.047l1-1.043v-14.887l2.168-8.994zM137.08 108c0 .062.108.155.175.144l-.175.028V108zm-14.108 18.08l.028-.236v.12l-.028.115zm14.108-.964h1V108c0-.552-.442-.93-.982-.843l-3.08.49c-4.383.7-8.782 4.775-9.822 9.088l-2.196 9.11v16.047l1-1.043v-14.887l2.168-8.994c.946-3.924 5.026-7.7 9.007-8.334l2.905-.464v16.944z" fill="#979797" fill-rule="nonzero"/><path d="M15 125h120v18.996c0 3.316-2.69 6.004-5.992 6.004H20.992c-3.31 0-5.992-2.687-5.992-6.004V125z" stroke="#002B4D" fill="#97E8F6"/><g stroke="#3B0925" fill="#B28697"><path d="M15 120.54h30V125H15zM75 120.54h30V125H75zM45 120.54h30V125H45zM105 120.54h30V125h-30z"/></g><path d="M2.5 125H148" stroke="#002B4D" stroke-width="2" stroke-linecap="round"/><path d="M24 134.047s1.788-2.356 7.4 0c5.612 2.355 7.99-.616 7.99-.616M47 144.047s1.788-2.356 7.4 0c5.612 2.355 7.99-.616 7.99-.616M70 134.047s1.788-2.356 7.4 0c5.612 2.355 7.99-.616 7.99-.616" stroke="#002B4D" stroke-linecap="round" opacity=".2"/></g></svg>